<svg width="26" height="14" viewBox="0 0 26 14" fill="none" xmlns="http://www.w3.org/2000/svg">
<path d="M25.4335 7.84655C24.1085 9.19845 22.6165 10.3085 20.9931 11.1494C14.6315 14.4452 5.15007 14.4884 1.71672 9.27996C0.836555 7.94408 0.383057 6.22886 0.387176 4.27445C1.65452 5.11979 3.01265 5.80426 4.43288 6.3131C8.69566 7.84182 14.9333 5.95077 14.9333 5.95077C12.0606 6.14886 9.28697 5.81246 6.68448 4.94877C5.42227 4.52925 3.51343 3.8958 1.5995 2.28875C1.46812 2.17849 1.33897 2.06613 1.21108 1.9484C4.92273 0.808668 11.4445 -0.307071 18.2206 2.713C20.9219 3.91626 23.3462 5.64199 25.4335 7.84655Z" fill="#6CB71D" fill-opacity="0.6"/>
</svg>
