<svg width="37" height="31" viewBox="0 0 37 31" fill="none" xmlns="http://www.w3.org/2000/svg">
<path fill-rule="evenodd" clip-rule="evenodd" d="M30.1191 6.19576C29.0209 6.07677 27.5928 6.07506 25.5546 6.07506L8.92378 6.07506L10.1558 15.8787C10.3826 17.6833 10.5424 18.9428 10.7653 19.9074C10.9829 20.8485 11.2347 21.3821 11.5708 21.7785C11.8275 22.0812 12.1266 22.3451 12.459 22.562C12.8942 22.8461 13.455 23.0294 14.4159 23.1279C15.4008 23.2288 16.6704 23.2304 18.4892 23.2304L25.5546 23.2304C27.5928 23.2304 29.0209 23.2286 30.1191 23.1097C31.194 22.9932 31.8035 22.7766 32.2593 22.4454C32.6083 22.1919 32.9151 21.885 33.1686 21.5361C33.4998 21.0803 33.7164 20.4707 33.8329 19.3959C33.9519 18.2976 33.9536 16.8695 33.9536 14.8314L33.9536 14.474C33.9536 12.4359 33.9519 11.0078 33.8329 9.90954C33.7164 8.8347 33.4998 8.22515 33.1686 7.76931C32.9151 7.42038 32.6083 7.11353 32.2593 6.86002C31.8035 6.52884 31.194 6.31222 30.1191 6.19576ZM30.3886 3.7085C31.6763 3.84802 32.7765 4.14333 33.7299 4.83601C34.2912 5.24383 34.7848 5.73746 35.1926 6.29878C35.8853 7.25218 36.1806 8.35236 36.3202 9.64007C36.4555 10.8889 36.4554 12.4528 36.4554 14.4014L36.4554 14.904C36.4554 16.8526 36.4555 18.4165 36.3202 19.6653C36.1806 20.9531 35.8853 22.0532 35.1926 23.0066C34.7848 23.568 34.2912 24.0616 33.7299 24.4694C32.7765 25.1621 31.6763 25.4574 30.3886 25.5969C29.1398 25.7322 27.5759 25.7322 25.6274 25.7322L18.4217 25.7322C16.6862 25.7322 15.2882 25.7322 14.1609 25.6167C12.9951 25.4972 11.9918 25.2447 11.0914 24.657C10.5568 24.308 10.0756 23.8835 9.66271 23.3966C8.96734 22.5765 8.59166 21.6125 8.32777 20.4707C8.07259 19.3667 7.89829 17.9796 7.68191 16.2576L6.08789 3.57324L25.6274 3.57324C27.5759 3.57322 29.1398 3.57321 30.3886 3.7085Z" fill="black" fill-opacity="0.8"/>
<path fill-rule="evenodd" clip-rule="evenodd" d="M4.88905e-09 1.25091C2.1889e-09 0.560051 0.56005 -2.1889e-09 1.25091 -4.88905e-09L4.70665 -1.83955e-08C5.77376 -2.25661e-08 6.76262 0.559885 7.31164 1.47492L9.4716 5.07485L7.32631 6.36202L5.16635 2.7621C5.06947 2.60062 4.89496 2.50182 4.70665 2.50182L1.25091 2.50182C0.56005 2.50182 7.58919e-09 1.94177 4.88905e-09 1.25091Z" fill="black" fill-opacity="0.8"/>
<path d="M30.7369 28.9491C30.7369 29.9361 29.9368 30.7361 28.9498 30.7361C27.9629 30.7361 27.1628 29.9361 27.1628 28.9491C27.1628 27.9622 27.9629 27.1621 28.9498 27.1621C29.9368 27.1621 30.7369 27.9622 30.7369 28.9491Z" fill="black" fill-opacity="0.8"/>
<path d="M18.2275 28.9491C18.2275 29.9361 17.4275 30.7361 16.4405 30.7361C15.4536 30.7361 14.6536 29.9361 14.6536 28.9491C14.6536 27.9622 15.4536 27.1621 16.4405 27.1621C17.4275 27.1621 18.2275 27.9622 18.2275 28.9491Z" fill="black" fill-opacity="0.8"/>
<path fill-rule="evenodd" clip-rule="evenodd" d="M29.8433 13.2237C29.8433 13.9146 29.2832 14.4746 28.5924 14.4746L23.9461 14.4746C23.2553 14.4746 22.6952 13.9146 22.6952 13.2237C22.6952 12.5328 23.2553 11.9728 23.9461 11.9728L28.5924 11.9728C29.2832 11.9728 29.8433 12.5328 29.8433 13.2237Z" fill="black" fill-opacity="0.8"/>
</svg>
