<svg width="87" height="88" viewBox="0 0 87 88" fill="none" xmlns="http://www.w3.org/2000/svg">
<path d="M7.59245 62.7723C11.6562 62.7723 14.9505 59.478 14.9505 55.4142C14.9505 51.3505 11.6562 48.0562 7.59245 48.0562C3.5287 48.0562 0.234375 51.3505 0.234375 55.4142C0.234375 59.478 3.5287 62.7723 7.59245 62.7723Z" fill="#93D2C4"/>
<path d="M68.6509 68.9326C78.7339 58.8496 78.7339 42.5019 68.6509 32.4189C58.5679 22.336 42.2202 22.336 32.1372 32.4189C22.0542 42.5019 22.0542 58.8496 32.1372 68.9326C42.2202 79.0156 58.5679 79.0156 68.6509 68.9326Z" fill="#D1DE53"/>
<path d="M58.9121 64.1555H46.0452C38.8814 64.1555 33.0462 58.3203 33.0462 51.1565V29.3542C33.0462 27.1476 31.2514 25.3527 29.0447 25.3527H22.9609C20.7543 25.3527 18.9594 27.1476 18.9594 29.3542V37.1086C18.9594 37.8778 18.3378 38.4916 17.5764 38.4916H6.48875C5.71953 38.4916 5.10571 37.87 5.10571 37.1086V27.1243C5.10571 18.5075 12.1141 11.499 20.7309 11.499H31.2747C39.8915 11.499 46.8999 18.5075 46.8999 27.1243V47.4503C46.8999 48.7556 47.9644 49.8201 49.2697 49.8201H58.9121C59.6814 49.8201 60.2952 50.4417 60.2952 51.2031V62.7647C60.2952 63.5339 59.6814 64.1555 58.9121 64.1555ZM22.9609 22.5866H29.0447C32.782 22.5866 35.8201 25.6247 35.8201 29.362V51.1565C35.8201 56.7974 40.4043 61.3817 46.0452 61.3817H57.5291V52.5939H49.2697C46.4337 52.5939 44.1338 50.2863 44.1338 47.458V27.1243C44.1338 20.0381 38.3686 14.2651 31.2747 14.2651H20.7309C13.6448 14.2651 7.87179 20.0304 7.87179 27.1243V35.7255H16.1856V29.362C16.1856 25.6247 19.2236 22.5866 22.9609 22.5866Z" fill="#009248"/>
<path d="M25.8909 14.5374C25.1216 14.5374 24.5078 13.9158 24.5078 13.1544V1.63939C24.5078 0.870168 25.1294 0.256348 25.8909 0.256348C26.6523 0.256348 27.2739 0.877938 27.2739 1.63939V13.1544C27.2739 13.9236 26.6523 14.5374 25.8909 14.5374Z" fill="#009248"/>
<path d="M33.0464 4.68502H18.7265C17.9573 4.68502 17.3435 4.06343 17.3435 3.30198C17.3435 2.53277 17.9651 1.91895 18.7265 1.91895H33.0464C33.8157 1.91895 34.4295 2.54054 34.4295 3.30198C34.4295 4.06343 33.8157 4.68502 33.0464 4.68502Z" fill="#009248"/>
<path d="M12.1765 57.8387C10.3662 57.8387 8.548 57.1471 7.17273 55.7719C4.41443 53.0136 4.41443 48.5226 7.17273 45.7643L11.1975 41.7395C11.7414 41.1956 12.6194 41.1956 13.1555 41.7395L17.1803 45.7643C19.9386 48.5226 19.9386 53.0136 17.1803 55.7719C15.8051 57.1471 13.9947 57.8387 12.1765 57.8387ZM12.1765 44.6687L9.13074 47.7145C7.45245 49.3928 7.45245 52.1278 9.13074 53.8061C10.809 55.4844 13.544 55.4844 15.2223 53.8061C16.9006 52.1278 16.9006 49.3928 15.2223 47.7145L12.1765 44.6687Z" fill="#009248"/>
<path d="M25.8904 28.3525C24.15 28.3525 22.7358 26.9384 22.7358 25.1979V11.2898C22.7358 9.54937 24.15 8.13525 25.8904 8.13525C27.6309 8.13525 29.045 9.54937 29.045 11.2898V25.1979C29.0372 26.9461 27.6309 28.3525 25.8904 28.3525Z" fill="#FDFADC"/>
<path d="M25.8906 29.7431C23.3887 29.7431 21.353 27.7074 21.353 25.2055V11.2974C21.353 8.79547 23.3887 6.75977 25.8906 6.75977C28.3925 6.75977 30.4282 8.79547 30.4282 11.2974V25.1977C30.4205 27.7074 28.3925 29.7431 25.8906 29.7431ZM25.8906 9.53361C24.9194 9.53361 24.1269 10.3261 24.1269 11.2974V25.1977C24.1269 26.1689 24.9194 26.9615 25.8906 26.9615C26.8619 26.9615 27.6544 26.1689 27.6544 25.1977V11.2974C27.6544 10.3261 26.8619 9.53361 25.8906 9.53361Z" fill="#009248"/>
</svg>
