<svg width="92" height="71" viewBox="0 0 92 71" fill="none" xmlns="http://www.w3.org/2000/svg">
<path d="M74.7603 24.5289C76.5048 14.6269 69.8919 5.18547 59.9898 3.44096C50.0878 1.69644 40.6464 8.3094 38.9019 18.2114C37.1574 28.1134 43.7704 37.5548 53.6724 39.2994C63.5744 41.0439 73.0158 34.4309 74.7603 24.5289Z" fill="#D1DE53"/>
<path d="M17.7335 39.0258C22.7828 36.9163 25.1658 31.1129 23.0563 26.0636C20.9467 21.0144 15.1434 18.6313 10.0941 20.7409C5.04488 22.8504 2.66179 28.6538 4.77134 33.703C6.8809 38.7523 12.6843 41.1354 17.7335 39.0258Z" fill="#93D2C4"/>
<path d="M34.4826 61.395H6.42698C5.60478 61.395 4.93359 60.7238 4.93359 59.9016V41.7376C4.93359 34.0358 11.2008 27.7686 18.9027 27.7686H34.491C35.3132 27.7686 35.9844 28.4397 35.9844 29.2619V59.8932C35.976 60.7238 35.3048 61.395 34.4826 61.395ZM7.92037 58.3998H32.9808V30.7637H18.8943C12.8452 30.7637 7.92037 35.6886 7.92037 41.7376V58.3998Z" fill="#009248"/>
<path d="M89.7802 61.3947H34.4829C33.6607 61.3947 32.9895 60.7235 32.9895 59.9013V29.2113C32.9895 19.4539 40.9347 11.5088 50.692 11.5088H73.5794C83.3368 11.5088 91.282 19.4539 91.282 29.2113V59.9013C91.2736 60.7235 90.6024 61.3947 89.7802 61.3947ZM35.9763 58.3995H88.2784V29.2113C88.2784 21.0983 81.6756 14.5039 73.5711 14.5039H50.6836C42.5707 14.5039 35.9763 21.1067 35.9763 29.2113V58.3995Z" fill="#009248"/>
<path d="M78.0281 62.1774C79.0513 57.8439 76.3678 53.5013 72.0343 52.4781C67.7008 51.4548 63.3582 54.1383 62.335 58.4718C61.3117 62.8053 63.9952 67.1479 68.3287 68.1711C72.6622 69.1944 77.0048 66.5109 78.0281 62.1774Z" fill="#FDFADC"/>
<path d="M70.1898 69.8602C64.921 69.8602 60.6338 65.573 60.6338 60.2958C60.6338 55.027 64.921 50.7314 70.1898 50.7314C75.4586 50.7314 79.7542 55.0186 79.7542 60.2958C79.7542 65.573 75.467 69.8602 70.1898 69.8602ZM70.1898 53.735C66.5654 53.735 63.6206 56.6798 63.6206 60.3042C63.6206 63.9286 66.5654 66.8735 70.1898 66.8735C73.8142 66.8735 76.759 63.9286 76.759 60.3042C76.759 56.6798 73.8142 53.735 70.1898 53.735Z" fill="#009248"/>
<path d="M23.0764 67.7594C27.1944 66.065 29.1591 61.3532 27.4648 57.2352C25.7705 53.1172 21.0587 51.1524 16.9407 52.8467C12.8227 54.541 10.8579 59.2528 12.5522 63.3709C14.2465 67.4889 18.9583 69.4537 23.0764 67.7594Z" fill="#FDFADC"/>
<path d="M19.9933 69.8602C14.7245 69.8602 10.4373 65.573 10.4373 60.2958C10.4373 55.027 14.7245 50.7314 19.9933 50.7314C25.2621 50.7314 29.5577 55.0186 29.5577 60.2958C29.5493 65.573 25.2621 69.8602 19.9933 69.8602ZM19.9933 53.735C16.3689 53.735 13.424 56.6798 13.424 60.3042C13.424 63.9286 16.3689 66.8735 19.9933 66.8735C23.6177 66.8735 26.5625 63.9286 26.5625 60.3042C26.5625 56.6798 23.6177 53.735 19.9933 53.735Z" fill="#009248"/>
<path d="M19.8005 47.0902H6.82982C6.00761 47.0902 5.33643 46.419 5.33643 45.5968C5.33643 44.7663 6.00761 44.1035 6.82982 44.1035H19.8005C22.4349 44.1035 24.5827 41.9557 24.5827 39.3213V29.2702C24.5827 28.4397 25.2539 27.7769 26.0761 27.7769C26.8983 27.7769 27.5695 28.448 27.5695 29.2702V39.3213C27.5695 43.6085 24.0877 47.0902 19.8005 47.0902Z" fill="#009248"/>
<path d="M57.7729 27.0716C57.5632 27.0716 57.3451 27.0297 57.1437 26.929C56.397 26.5766 56.0698 25.6873 56.4222 24.9406L57.7813 22.0293L54.8701 20.6702C54.1234 20.3178 53.7962 19.4285 54.1485 18.6818C54.5009 17.9351 55.3902 17.6079 56.1369 17.9603L60.399 19.9571C61.1457 20.3094 61.4729 21.1988 61.1205 21.9455L59.1237 26.2075C58.872 26.7528 58.3351 27.0716 57.7729 27.0716Z" fill="#009248"/>
<path d="M73.3529 38.8849C73.269 38.8849 73.1851 38.8765 73.1012 38.8597C72.7068 38.7926 72.3629 38.5745 72.1363 38.2473L69.4264 34.3964C68.9482 33.7168 69.1076 32.7855 69.7872 32.3073C70.4584 31.829 71.398 31.9885 71.8679 32.6681L73.7136 35.294L76.3396 33.4399C77.0108 32.9617 77.9505 33.1211 78.4203 33.8007C78.8985 34.4802 78.7391 35.4115 78.0596 35.8897L74.2086 38.5996C73.9653 38.7926 73.6633 38.8849 73.3529 38.8849Z" fill="#009248"/>
<path d="M52.3531 46.8801C51.556 46.8801 50.8933 46.2509 50.8597 45.4539L50.6499 40.7556C50.6164 39.9334 51.254 39.2286 52.0762 39.1951L56.7745 38.9853C57.6219 38.9434 58.3015 39.5894 58.335 40.4116C58.3686 41.2338 57.731 41.9385 56.9088 41.9721L53.7038 42.1147L53.8465 45.3196C53.88 46.1418 53.2424 46.8466 52.4202 46.8801C52.395 46.8717 52.3699 46.8801 52.3531 46.8801Z" fill="#009248"/>
<path d="M73.4704 38.6825C73.3194 38.6825 73.16 38.6573 73.0005 38.607C72.2119 38.3469 71.784 37.5079 72.0441 36.7193C72.3965 35.6286 72.5811 34.5127 72.5811 33.3885C72.5811 28.1616 68.8476 23.7318 63.6962 22.8425C62.8824 22.6999 62.3371 21.928 62.4797 21.1142C62.6223 20.3004 63.4026 19.755 64.208 19.8977C70.794 21.0303 75.5762 26.7102 75.5762 33.3885C75.5762 34.8316 75.3413 36.2662 74.8883 37.6505C74.6869 38.2798 74.0996 38.6825 73.4704 38.6825Z" fill="#009248"/>
<path d="M50.2723 38.6919C49.6431 38.6919 49.0558 38.2891 48.8545 37.6599C48.4014 36.2672 48.1665 34.8325 48.1665 33.3895C48.1665 26.7112 52.9403 21.0397 59.5179 19.8986C60.3318 19.756 61.1036 20.3013 61.2462 21.1152C61.3889 21.929 60.8435 22.7008 60.0297 22.8435C54.8868 23.7328 51.1617 28.171 51.1617 33.3895C51.1617 34.5137 51.3462 35.638 51.6986 36.7286C51.9587 37.5173 51.5308 38.3563 50.7422 38.6164C50.5828 38.6667 50.4234 38.6919 50.2723 38.6919Z" fill="#009248"/>
<path d="M61.8664 47.0895C57.5709 47.0895 53.6108 45.1263 50.9848 41.6948C50.4814 41.0404 50.6073 40.1008 51.2617 39.5974C51.9161 39.094 52.8558 39.2198 53.3592 39.8743C55.4147 42.559 58.5105 44.0943 61.8664 44.0943C65.214 44.0943 68.3098 42.5674 70.3569 39.891C70.8603 39.2366 71.8 39.1108 72.4544 39.6142C73.1088 40.1176 73.2347 41.0572 72.7313 41.7116C70.1136 45.1347 66.1536 47.0895 61.8664 47.0895Z" fill="#009248"/>
</svg>
