<svg width="83" height="74" viewBox="0 0 83 74" fill="none" xmlns="http://www.w3.org/2000/svg">
<path d="M7.79515 19.9375C12.1003 19.9375 15.5903 16.4474 15.5903 12.1423C15.5903 7.83717 12.1003 4.34717 7.79515 4.34717C3.49001 4.34717 0 7.83717 0 12.1423C0 16.4474 3.49001 19.9375 7.79515 19.9375Z" fill="#D1DE53"/>
<path d="M67.5104 45.843C75.8761 41.8153 79.3926 31.7684 75.3648 23.4028C71.3371 15.0372 61.2903 11.5207 52.9246 15.5484C44.559 19.5762 41.0425 29.623 45.0702 37.9886C49.098 46.3542 59.1448 49.8708 67.5104 45.843Z" fill="#93D2C4"/>
<path d="M57.72 21.023H37.2227C36.5186 21.023 35.9438 20.4482 35.9438 19.7442C35.9438 19.0329 36.5186 18.4653 37.2227 18.4653H57.72C58.424 18.4653 58.9988 19.0401 58.9988 19.7442C59.006 20.4482 58.4312 21.023 57.72 21.023Z" fill="#009248"/>
<path d="M53.7757 73.9864C50.8947 73.9864 48.5454 71.637 48.5454 68.7561V49.2143C48.5454 48.6252 48.064 48.1438 47.4749 48.1438C46.8858 48.1438 46.4044 48.6252 46.4044 49.2143V68.7561C46.4044 71.6442 44.0551 73.9864 41.1741 73.9864C38.2932 73.9864 35.9438 71.637 35.9438 68.7561V28.753C35.9438 28.0417 36.5186 27.4741 37.2227 27.4741C37.9268 27.4741 38.5015 28.0489 38.5015 28.753V68.7561C38.5015 70.2289 39.7013 71.4287 41.1741 71.4287C42.647 71.4287 43.8468 70.2289 43.8468 68.7561V49.2143C43.8468 47.2099 45.4776 45.5862 47.4749 45.5862C49.4794 45.5862 51.1031 47.217 51.1031 49.2143V68.7561C51.1031 70.2289 52.3029 71.4287 53.7757 71.4287C55.2485 71.4287 56.4483 70.2289 56.4483 68.7561V28.8607C56.4483 28.1495 57.0231 27.5819 57.7271 27.5819C58.4312 27.5819 59.006 28.1567 59.006 28.8607V68.7561C59.006 71.637 56.6567 73.9864 53.7757 73.9864Z" fill="#009248"/>
<path d="M61.0319 49.8539C58.503 49.8539 56.441 47.792 56.441 45.263C56.441 44.5518 57.0158 43.9842 57.7199 43.9842C58.4239 43.9842 58.9987 44.559 58.9987 45.263C58.9987 46.3838 59.9111 47.2891 61.0247 47.2891C62.1383 47.2891 63.0507 46.3766 63.0507 45.263V26.3679C63.0507 23.4223 60.6583 21.0298 57.7127 21.0298C57.0086 21.0298 56.4338 20.4551 56.4338 19.751C56.4338 19.0397 57.0086 18.4722 57.7127 18.4722C62.0665 18.4722 65.6156 22.0141 65.6156 26.3751V45.2702C65.6228 47.792 63.5608 49.8539 61.0319 49.8539Z" fill="#009248"/>
<path d="M32.4593 40.6725H23.1482C21.8837 40.6725 20.7055 40.1696 19.829 39.2572C18.9525 38.3448 18.507 37.1449 18.5645 35.8733C18.6723 33.4593 20.8276 31.4908 23.3637 31.4908H29.3197V26.2533C29.3197 21.957 32.8113 18.4653 37.1076 18.4653C37.9123 18.4653 38.5014 19.0545 38.5014 19.7801C38.5014 20.4914 37.9266 21.0589 37.2226 21.0589C37.1292 21.0589 37.043 21.0517 36.9567 21.0302C34.1045 21.1451 31.8773 23.4442 31.8773 26.2461V32.7337C31.8773 33.4449 31.2738 34.0484 30.5626 34.0484H23.3637C22.1711 34.0484 21.1725 34.9178 21.1222 35.9811C21.1006 36.5415 21.2946 37.0731 21.6826 37.4754C22.0705 37.8778 22.5878 38.1005 23.1482 38.1005H32.4521C34.3703 38.1005 35.9366 36.5343 35.9366 34.616V32.7624C35.9366 32.0512 36.5113 31.4836 37.2154 31.4836C37.9195 31.4836 38.4942 32.0583 38.4942 32.7624V34.616C38.5014 37.9568 35.7929 40.6725 32.4593 40.6725Z" fill="#009248"/>
<path d="M47.4749 16.5108C43.0492 16.5108 39.4426 12.9113 39.4426 8.47853C39.4426 4.0529 43.042 0.446289 47.4749 0.446289C51.9005 0.446289 55.5071 4.04571 55.5071 8.47853C55.4999 12.9113 51.9005 16.5108 47.4749 16.5108ZM47.4749 3.01833C44.4574 3.01833 42.0075 5.46823 42.0075 8.48571C42.0075 11.5032 44.4574 13.9531 47.4749 13.9531C50.4923 13.9531 52.9422 11.5032 52.9422 8.48571C52.9422 5.46823 50.4851 3.01833 47.4749 3.01833Z" fill="#009248"/>
<path d="M24.6067 34.0485C23.9026 34.0485 23.3279 33.4737 23.3279 32.7696C23.3279 24.5147 17.7958 21.4182 15.9781 20.398C15.3603 20.0531 15.1376 19.27 15.4824 18.6521C15.8273 18.0343 16.6104 17.8188 17.2282 18.1636C22.9758 21.3823 25.8927 26.2964 25.8927 32.7696C25.8855 33.4809 25.318 34.0485 24.6067 34.0485Z" fill="#009248"/>
<path d="M18.9023 27.2736C17.1349 27.2736 15.2239 26.7348 13.478 25.6212C9.77803 23.2719 6.90424 15.3618 6.58812 14.4637C6.4588 14.0901 6.50191 13.6806 6.71744 13.3501C6.92579 13.0197 7.27783 12.8041 7.67298 12.761C8.61414 12.6676 16.9984 11.9132 20.6984 14.2626C24.7217 16.8202 26.3741 21.447 24.3912 24.5795C23.2633 26.354 21.2085 27.2736 18.9023 27.2736ZM9.61278 15.1894C10.7336 17.9123 12.8171 22.1583 14.8503 23.4515C17.6306 25.2189 21.0073 25.1111 22.2215 23.2C23.4285 21.2962 22.0994 18.1925 19.319 16.4179C17.2858 15.1319 12.5584 15.0529 9.61278 15.1894Z" fill="#009248"/>
</svg>
