<svg width="70" height="69" viewBox="0 0 70 69" fill="none" xmlns="http://www.w3.org/2000/svg">
<path fill-rule="evenodd" clip-rule="evenodd" d="M35.0341 68.9107C15.9794 68.9107 0.53418 53.5213 0.53418 34.5354C0.53418 15.5495 15.9794 0.160156 35.0341 0.160156C54.0889 0.160156 69.5341 15.5495 69.5341 34.5354C69.5341 53.5213 54.0889 68.9107 35.0341 68.9107ZM35.6379 50.2728C37.8545 51.8004 40.6663 52.7092 43.7109 52.7092C44.4677 52.7092 45.2159 52.6533 45.9512 52.5437C46.2035 52.6469 46.4472 52.7736 46.7469 52.9455C47.3937 53.3236 48.2584 53.9037 49.3344 54.6857C50.2163 55.3281 51.4647 54.7072 51.4647 53.6266V50.4877C51.9176 50.1955 52.3445 49.8797 52.7477 49.5381C55.1843 47.4798 56.5966 44.6654 56.5966 41.6468C56.5966 39.6595 55.9929 37.8011 54.932 36.1962C54.5975 37.3358 54.1444 38.4375 53.58 39.4833C53.8043 40.1772 53.9229 40.9013 53.9229 41.6468C53.9229 43.8683 52.8706 45.9652 51.0076 47.5378C50.527 47.9425 50.0094 48.3014 49.4616 48.6099C49.2587 48.7241 49.0897 48.8899 48.9719 49.0903C48.8541 49.2906 48.7917 49.5185 48.791 49.7508V51.0914C47.5123 50.275 46.6347 49.8904 45.9663 49.8904C45.8912 49.8906 45.8161 49.8971 45.7421 49.9097C43.8687 50.2219 41.9482 50.0969 40.1315 49.5445C38.6601 49.9253 37.1566 50.1698 35.64 50.275L35.6379 50.2728ZM19.5393 43.995C20.2504 44.5945 21.0026 45.1437 21.7905 45.6386V50.9926C21.7905 52.3461 23.3537 53.1195 24.4556 52.316C27.4959 50.1031 29.609 48.8527 30.1373 48.7281C31.3577 48.9215 32.604 49.0181 33.8633 49.0181C45.0758 49.0181 54.2571 41.2687 54.2571 31.5727C54.2571 21.8746 45.0736 14.1251 33.8633 14.1251C22.653 14.1251 13.4717 21.8746 13.4717 31.5705C13.4717 36.3186 15.6926 40.7466 19.5393 43.995ZM30.2106 45.4259C29.126 45.4259 27.5412 46.1886 25.1348 47.7978V44.7105C25.1337 44.4198 25.0554 44.1347 24.9076 43.8841C24.7599 43.6335 24.5481 43.4264 24.2939 43.2839C23.3802 42.7687 22.5168 42.1695 21.715 41.4942C18.582 38.8538 16.8138 35.3217 16.8138 31.5705C16.8138 23.8146 24.3952 17.4165 33.8633 17.4165C43.3335 17.4165 50.9127 23.8146 50.9127 31.5705C50.9127 39.3265 43.3335 45.7267 33.8633 45.7267C32.7205 45.7267 31.5928 45.6322 30.4909 45.4474C30.3982 45.4325 30.3045 45.4253 30.2106 45.4259ZM25.1715 34.8641C26.6485 34.8641 27.8452 33.6825 27.8452 32.2301C27.8452 30.7756 26.6485 29.5961 25.1715 29.5961C23.6944 29.5961 22.4977 30.7756 22.4977 32.2301C22.4977 33.6846 23.6944 34.8641 25.1715 34.8641ZM33.8633 34.8641C35.3403 34.8641 36.537 33.6825 36.537 32.2301C36.537 30.7756 35.3403 29.5961 33.8633 29.5961C32.3863 29.5961 31.1895 30.7756 31.1895 32.2301C31.1895 33.6846 32.3863 34.8641 33.8633 34.8641ZM42.5551 34.8641C44.0322 34.8641 45.2289 33.6825 45.2289 32.2301C45.2289 30.7756 44.0322 29.5961 42.5551 29.5961C41.0781 29.5961 39.8814 30.7756 39.8814 32.2301C39.8814 33.6846 41.0781 34.8641 42.5551 34.8641Z" fill="url(#paint0_radial)"/>
<defs>
<radialGradient id="paint0_radial" cx="0" cy="0" r="1" gradientUnits="userSpaceOnUse" gradientTransform="translate(35.0341 34.5354) rotate(90) scale(34.3753 34.5)">
<stop stop-color="#B13E2B"/>
<stop offset="1" stop-color="#F15C41"/>
</radialGradient>
</defs>
</svg>
