<svg width="70" height="70" viewBox="0 0 70 70" fill="none" xmlns="http://www.w3.org/2000/svg">
<path d="M35.0341 0.410156C15.9803 0.410156 0.53418 15.8005 0.53418 34.7854C0.53418 53.7704 15.9803 69.1607 35.0341 69.1607C54.0879 69.1607 69.5341 53.7704 69.5341 34.7854C69.5341 15.8005 54.0879 0.410156 35.0341 0.410156ZM22.6357 14.0646C23.3465 14.0228 23.989 14.4461 24.4761 15.1975L29.1929 24.1102C29.6895 25.1664 29.4073 26.2972 28.6665 27.0518L26.506 29.2044C26.3727 29.3865 26.2849 29.5915 26.2828 29.817C27.1113 33.0125 29.6245 35.9601 31.842 37.9871C34.0593 40.0141 36.4425 42.7584 39.5362 43.4086C39.9185 43.5148 40.387 43.5529 40.6606 43.2995L43.1706 40.7524C44.037 40.0981 45.2904 39.781 46.2155 40.316H46.2575L54.7687 45.3221C56.0181 46.1024 56.1475 47.6106 55.2531 48.528L49.3909 54.3229C48.5252 55.2075 47.3751 55.5049 46.2577 55.5062C41.3157 55.3587 36.6461 52.9419 32.8106 50.4582C26.5149 45.8947 20.7401 40.2347 17.1146 33.3965C15.7241 30.529 14.0907 26.8703 14.2466 23.6698C14.2605 22.4657 14.5874 21.2861 15.4384 20.5101L21.3007 14.669C21.7574 14.2818 22.2092 14.0897 22.6357 14.0646Z" fill="url(#paint0_radial)"/>
<defs>
<radialGradient id="paint0_radial" cx="0" cy="0" r="1" gradientUnits="userSpaceOnUse" gradientTransform="translate(35.0341 34.7854) rotate(90) scale(34.3753 34.5)">
<stop stop-color="#B13E2B"/>
<stop offset="1" stop-color="#F15C41"/>
</radialGradient>
</defs>
</svg>
