<svg width="54" height="57" viewBox="0 0 54 57" fill="none" xmlns="http://www.w3.org/2000/svg">
<path fill-rule="evenodd" clip-rule="evenodd" d="M53.3843 23.5595L53.3843 34.1915C53.3843 37.7857 53.3843 40.5954 53.1682 42.8519C52.9483 45.147 52.4942 47.0306 51.4782 48.7313C49.8016 51.5379 47.1263 53.8197 43.8357 55.2497C41.8417 56.1163 39.6334 56.5036 36.9425 56.6911C34.2969 56.8755 31.0026 56.8755 26.7885 56.8755L26.5958 56.8755C22.3817 56.8755 19.0874 56.8755 16.4418 56.6911C13.7509 56.5036 11.5426 56.1163 9.54861 55.2498C6.25804 53.8197 3.58272 51.5379 1.90609 48.7313C0.89012 47.0306 0.436003 45.147 0.216146 42.8519C-9.89491e-06 40.5954 1.16974e-06 37.7856 1.21285e-05 34.1913L1.06927e-05 23.5596C-1.23675e-06 19.9654 -1.30603e-05 17.1556 0.216143 14.8991C0.435999 12.604 0.890115 10.7204 1.90608 9.01971C3.58271 6.21311 6.25803 3.93127 9.5486 2.50123C11.5426 1.63468 13.7509 1.24735 16.4418 1.05984C19.0874 0.875474 22.3816 0.875482 26.5956 0.875492L26.7887 0.875492C31.0027 0.875481 34.2969 0.875472 36.9425 1.05983C39.6334 1.24735 41.8417 1.63468 43.8357 2.50122C47.1263 3.93126 49.8016 6.2131 51.4782 9.0197C52.4942 10.7204 52.9483 12.604 53.1681 14.8991C53.3843 17.1556 53.3843 19.9653 53.3843 23.5595ZM48.8871 15.1974C48.689 13.1289 48.3071 11.7811 47.6511 10.6829C46.3863 8.56566 44.368 6.84427 41.8857 5.76547C40.5982 5.20593 39.018 4.88022 36.5927 4.71122C34.1425 4.54047 31.0233 4.53904 26.6921 4.53904C22.361 4.53904 19.2418 4.54047 16.7916 4.71122C14.3663 4.88023 12.7861 5.20594 11.4986 5.76548C9.01626 6.84428 6.99804 8.56566 5.73321 10.6829C5.07719 11.7811 4.69532 13.1289 4.49717 15.1974C4.29697 17.2873 4.2953 19.9477 4.2953 23.6418L4.2953 34.1091C4.2953 37.8033 4.29698 40.4637 4.49717 42.5536C4.69532 44.6221 5.0772 45.9699 5.73322 47.0681C6.99805 49.1853 9.01626 50.9067 11.4986 51.9855C12.7861 52.545 14.3663 52.8708 16.7916 53.0398C19.2418 53.2105 22.361 53.2119 26.6922 53.2119C31.0233 53.2119 34.1425 53.2105 36.5927 53.0398C39.018 52.8708 40.5982 52.545 41.8857 51.9855C44.368 50.9067 46.3863 49.1853 47.6511 47.0681C48.3071 45.9699 48.689 44.6221 48.8871 42.5536C49.0873 40.4637 49.089 37.8032 49.089 34.1091L49.089 23.6418C49.089 19.9477 49.0873 17.2873 48.8871 15.1974Z" fill="#C4C4C4"/>
<path fill-rule="evenodd" clip-rule="evenodd" d="M35.2626 16.2593C36.5968 16.9597 36.7513 18.1901 35.6077 19.0073L33.1919 17.739L30.7761 16.4706C31.9197 15.6534 33.9284 15.5588 35.2626 16.2593ZM22.9884 28.8755C23.2881 28.5645 23.7249 28.1588 24.2858 27.6721C25.5088 26.6108 27.1664 25.2981 28.8584 24.0027C30.5431 22.7128 32.2315 21.4631 33.5009 20.5344C34.135 20.0705 34.6631 19.6877 35.0321 19.4213L35.4594 19.1136L35.6077 19.0073L33.1919 17.739C30.7761 16.4706 30.7763 16.4705 30.7761 16.4706L30.6181 16.5839L30.1799 16.8995C29.8031 17.1714 29.2659 17.5608 28.6216 18.0322C27.3342 18.9741 25.6135 20.2476 23.8892 21.5678C22.1721 22.8825 20.4207 24.2669 19.0869 25.4243C18.4244 25.9992 17.8253 26.552 17.379 27.0304C17.1574 27.268 16.9397 27.5228 16.7688 27.7759C16.6331 27.9768 16.3739 28.3899 16.3739 28.8755C16.3739 29.3612 16.6331 29.7743 16.7688 29.9752C16.9397 30.2282 17.1574 30.4831 17.379 30.7207C17.8253 31.199 18.4244 31.7519 19.0869 32.3268C20.4207 33.4841 22.1721 34.8686 23.8892 36.1833C25.6135 37.5035 27.3342 38.777 28.6216 39.7188C29.2659 40.1902 29.8031 40.5796 30.1799 40.8516L30.6181 41.1672L30.7731 41.2782C30.7733 41.2784 30.7761 41.2804 33.1919 40.0121L30.7761 41.2804C31.9197 42.0976 33.9284 42.1923 35.2626 41.4918C36.5968 40.7913 36.7513 39.561 35.6077 38.7438L35.4594 38.6375L35.0321 38.3298C34.6631 38.0634 34.135 37.6806 33.5009 37.2167C32.2315 36.288 30.5431 35.0383 28.8584 33.7484C27.1664 32.453 25.5088 31.1403 24.2858 30.079C23.7249 29.5923 23.2881 29.1866 22.9884 28.8755ZM22.6489 29.2662C22.6488 29.2662 22.6489 29.2662 22.6489 29.2662V29.2662Z" fill="#C4C4C4"/>
</svg>
