<svg width="54" height="57" viewBox="0 0 54 57" fill="none" xmlns="http://www.w3.org/2000/svg">
<path fill-rule="evenodd" clip-rule="evenodd" d="M-8.96123e-07 34.1915L-1.40241e-06 23.5595C-1.38259e-05 19.9653 -2.38359e-05 17.1556 0.21613 14.8991C0.43598 12.604 0.8901 10.7204 1.90607 9.01971C3.5827 6.2131 6.25802 3.93127 9.54858 2.50123C11.5425 1.63468 13.7509 1.24736 16.4418 1.05984C19.0874 0.875472 22.3817 0.875483 26.5957 0.875491L26.7885 0.875491C31.0026 0.875483 34.2969 0.875471 36.9425 1.05984C39.6333 1.24735 41.8417 1.63468 43.8357 2.50123C47.1262 3.93126 49.8016 6.2131 51.4782 9.01971C52.4942 10.7204 52.9483 12.604 53.1681 14.8991C53.3843 17.1556 53.3843 19.9654 53.3843 23.5596L53.3843 34.1914C53.3843 37.7856 53.3843 40.5954 53.1681 42.8519C52.9483 45.147 52.4942 47.0306 51.4782 48.7313C49.8016 51.5379 47.1262 53.8197 43.8357 55.2498C41.8417 56.1163 39.6333 56.5036 36.9425 56.6911C34.2969 56.8755 31.0026 56.8755 26.7887 56.8755L26.5956 56.8755C22.3816 56.8755 19.0874 56.8755 16.4418 56.6911C13.7509 56.5036 11.5425 56.1163 9.54859 55.2498C6.25802 53.8197 3.5827 51.5379 1.90607 48.7313C0.890102 47.0306 0.435982 45.147 0.216132 42.8519C-2.27197e-05 40.5954 -1.29773e-05 37.7857 -8.96123e-07 34.1915ZM4.49715 42.5536C4.6953 44.6221 5.07718 45.9699 5.7332 47.0681C6.99803 49.1853 9.01625 50.9067 11.4986 51.9855C12.7861 52.545 14.3663 52.8708 16.7915 53.0398C19.2418 53.2105 22.361 53.2119 26.6921 53.2119C31.0233 53.2119 34.1424 53.2105 36.5927 53.0398C39.0179 52.8708 40.5981 52.545 41.8857 51.9855C44.368 50.9067 46.3862 49.1853 47.6511 47.0681C48.3071 45.9699 48.689 44.6221 48.8871 42.5536C49.0873 40.4637 49.089 37.8033 49.089 34.1091L49.089 23.6418C49.089 19.9477 49.0873 17.2873 48.8871 15.1974C48.689 13.1289 48.3071 11.7811 47.6511 10.6829C46.3862 8.56566 44.368 6.84427 41.8857 5.76548C40.5981 5.20594 39.0179 4.88022 36.5927 4.71122C34.1424 4.54047 31.0233 4.53905 26.6921 4.53905C22.361 4.53905 19.2418 4.54047 16.7915 4.71122C14.3663 4.88023 12.7861 5.20594 11.4986 5.76548C9.01624 6.84428 6.99802 8.56567 5.7332 10.6829C5.07718 11.7811 4.6953 13.1289 4.49715 15.1974C4.29695 17.2873 4.29528 19.9477 4.29528 23.6418L4.29529 34.1091C4.29529 37.8033 4.29696 40.4637 4.49715 42.5536Z" fill="#C4C4C4"/>
<path fill-rule="evenodd" clip-rule="evenodd" d="M18.1217 41.4917C16.7875 40.7912 16.6329 39.5609 17.7766 38.7437L20.1923 40.012L22.6081 41.2803C21.4645 42.0976 19.4559 42.1922 18.1217 41.4917ZM30.3959 28.8754C30.0962 29.1865 29.6594 29.5922 29.0985 30.0789C27.8755 31.1402 26.2178 32.4529 24.5259 33.7483C22.8411 35.0382 21.1528 36.2879 19.8833 37.2166C19.2493 37.6805 18.7212 38.0633 18.3521 38.3297L17.9248 38.6374L17.7766 38.7437L20.1923 40.012C22.6081 41.2803 22.608 41.2805 22.6081 41.2803L22.7661 41.1671L23.2044 40.8515C23.5811 40.5795 24.1184 40.1901 24.7627 39.7187C26.05 38.7769 27.7707 37.5034 29.495 36.1832C31.2122 34.8685 32.9636 33.4841 34.2974 32.3267C34.9599 31.7518 35.559 31.1989 36.0052 30.7206C36.2269 30.483 36.4445 30.2281 36.6155 29.9751C36.7512 29.7742 37.0104 29.3611 37.0104 28.8754C37.0104 28.3898 36.7512 27.9767 36.6155 27.7758C36.4445 27.5227 36.2269 27.2679 36.0052 27.0303C35.559 26.5519 34.9599 25.9991 34.2974 25.4242C32.9636 24.2668 31.2122 22.8824 29.495 21.5677C27.7707 20.2475 26.05 18.974 24.7627 18.0321C24.1184 17.5607 23.5811 17.1714 23.2044 16.8994L22.7661 16.5838L22.6112 16.4727C22.611 16.4726 22.6081 16.4706 20.1923 17.7389L22.6081 16.4706C21.4645 15.6533 19.4559 15.5587 18.1217 16.2592C16.7875 16.9596 16.6329 18.19 17.7766 19.0072L17.9248 19.1135L18.3521 19.4212C18.7212 19.6876 19.2493 20.0704 19.8833 20.5343C21.1528 21.463 22.8411 22.7127 24.5259 24.0026C26.2178 25.298 27.8755 26.6107 29.0985 27.672C29.6594 28.1587 30.0962 28.5644 30.3959 28.8754ZM30.7354 28.4848C30.7354 28.4847 30.7354 28.4848 30.7354 28.4848V28.4848Z" fill="#C4C4C4"/>
</svg>
