<svg width="17" height="17" viewBox="0 0 17 17" fill="none" xmlns="http://www.w3.org/2000/svg">
<path d="M8.0014 0.997192C3.60063 0.997192 0 4.59782 0 8.9986C0 13.3994 3.60063 17 8.0014 17C12.4022 17 16.0028 13.3994 16.0028 8.9986C16.0028 4.59782 12.4022 0.997192 8.0014 0.997192ZM8.0014 15.3997C4.47278 15.3997 1.60028 12.5272 1.60028 8.9986C1.60028 5.46998 4.47278 2.59747 8.0014 2.59747C11.53 2.59747 14.4025 5.46998 14.4025 8.9986C14.4025 12.5272 11.53 15.3997 8.0014 15.3997ZM8.40147 4.99789H7.20126V9.79874L11.362 12.3592L12.0021 11.319L8.40147 9.15862V4.99789Z" fill="black" fill-opacity="0.5"/>
</svg>
