<svg width="53" height="27" viewBox="0 0 53 27" fill="none" xmlns="http://www.w3.org/2000/svg">
<path d="M52.4923 15.1697C49.7434 17.9744 46.6482 20.2773 43.2802 22.0219C30.0823 28.8593 10.4121 28.9489 3.28926 18.1435C1.46326 15.3721 0.522431 11.8137 0.530977 7.75906C3.16022 9.51281 5.9778 10.9328 8.92422 11.9885C17.7678 15.1599 30.7085 11.2368 30.7085 11.2368C24.7488 11.6477 18.9945 10.9498 13.5954 9.15801C10.9768 8.28767 7.01672 6.97351 3.04607 3.63951C2.77351 3.41077 2.50557 3.17766 2.24026 2.93341C9.94047 0.56892 23.4706 -1.7458 37.5283 4.51965C43.1324 7.01594 48.162 10.5962 52.4923 15.1697Z" fill="#6CB71D" fill-opacity="0.6"/>
</svg>
