<svg width="17" height="27" viewBox="0 0 17 27" fill="none" xmlns="http://www.w3.org/2000/svg">
<path d="M8.32046 23.7743C8.32046 23.7743 16.1232 12.8041 16.1232 8.42573C16.1232 4.03764 12.634 0.488159 8.32046 0.488159C4.00693 0.488159 0.527344 4.03764 0.527344 8.42573C0.527344 12.8041 8.32046 23.7743 8.32046 23.7743ZM13.3721 11.7607C13.3721 11.7607 13.5638 7.8894 9.46115 2.77972C9.47074 2.77972 15.8164 5.67586 13.3721 11.7607Z" fill="white"/>
<path d="M8.31976 26.0854C12.6131 26.0854 16.0936 24.2998 16.0936 22.0971C16.0936 19.8944 12.6131 18.1088 8.31976 18.1088C4.02638 18.1088 0.545898 19.8944 0.545898 22.0971C0.545898 24.2998 4.02638 26.0854 8.31976 26.0854Z" stroke="white" stroke-width="0.9562" stroke-miterlimit="10"/>
</svg>
