<svg width="13" height="10" viewBox="0 0 13 10" fill="none" xmlns="http://www.w3.org/2000/svg">
<g clip-path="url(#clip0)">
<path d="M1.099 0.34816L5.51087 5.11902C5.76216 5.3892 6.12473 5.54652 6.50166 5.54652C6.88218 5.54652 7.24116 5.39262 7.49245 5.11902L11.8325 0.430239C11.8684 0.392619 11.9115 0.36184 11.9546 0.3379C11.7751 0.26266 11.5705 0.218201 11.3587 0.218201H1.65542C1.4508 0.218201 1.25696 0.25582 1.08105 0.32764C1.08464 0.33448 1.09182 0.34132 1.099 0.34816Z" fill="white"/>
<path d="M12.6253 0.888519C12.6073 0.936399 12.5786 0.984279 12.5391 1.02532L8.20264 5.71068C7.77186 6.1758 7.15442 6.44256 6.50466 6.44256C5.85491 6.44256 5.23746 6.1758 4.80668 5.71068L0.394814 0.939819C0.384044 0.932979 0.376865 0.919299 0.369685 0.909039C0.233273 1.1245 0.154297 1.37758 0.154297 1.64775V8.10467C0.154297 8.89468 0.82559 9.53422 1.65484 9.53422H11.3581C12.1873 9.53422 12.8586 8.89468 12.8586 8.10467V1.64775C12.855 1.36732 12.7689 1.1074 12.6253 0.888519Z" fill="white"/>
</g>
<defs>
<clipPath id="clip0">
<rect width="12.7007" height="9.31259" fill="white" transform="translate(0.154297 0.218201)"/>
</clipPath>
</defs>
</svg>
