<svg width="29" height="27" viewBox="0 0 29 27" fill="none" xmlns="http://www.w3.org/2000/svg">
<path d="M28.0197 11.6724L15.7614 0.567455C15.1907 0.0497172 14.3136 0.0391511 13.7324 0.556889L1.07249 11.7041C0.544109 12.169 0.406731 12.9509 0.744892 13.5743C1.10419 14.24 1.94959 15.0113 3.16486 15.0113C3.42905 15.0113 3.68267 14.9796 3.94686 14.9056V24.8166C3.94686 25.0807 3.98913 25.757 4.5175 26.2958C4.89793 26.6868 5.41574 26.9087 5.98639 26.9087C6.66271 26.9087 12.2635 26.8981 12.2741 26.8981L16.5222 26.877H22.6725C23.2855 26.877 23.8455 26.6445 24.2471 26.2219C24.8072 25.6408 24.86 24.9117 24.8494 24.637V14.7788C25.1876 14.8845 25.5258 14.9373 25.8639 14.9373C27.1426 14.9373 27.9986 14.1554 28.3473 13.4792C28.6643 12.8875 28.527 12.1373 28.0197 11.6724ZM18.4138 22.7245C15.6029 25.5351 12.6017 24.1615 10.7946 22.566C9.94922 23.4747 9.37857 24.0875 9.37857 24.0875L6.32455 24.246C6.32455 24.246 7.80401 23.3373 9.94922 21.7207C8.36409 19.9139 7.03258 16.9343 9.83298 14.1343C12.8764 11.0913 21.3939 11.1547 21.3939 11.1547C21.3939 11.1547 21.4573 19.6815 18.4138 22.7245Z" fill="white"/>
<path d="M10.7838 22.0377C10.9211 22.0377 11.0479 21.9848 11.1536 21.8898L18.6777 14.6203C18.8891 14.4195 18.8891 14.0814 18.6883 13.8701C18.4875 13.6588 18.1493 13.6588 17.938 13.8595L10.4139 21.1184C10.2025 21.3192 10.192 21.6573 10.4033 21.8686C10.509 21.9848 10.6464 22.0377 10.7838 22.0377Z" fill="white"/>
</svg>
