<svg width="15" height="15" viewBox="0 0 15 15" fill="none" xmlns="http://www.w3.org/2000/svg">
<path fill-rule="evenodd" clip-rule="evenodd" d="M2.18481 2.08075C2.43298 1.95976 2.6991 1.87488 2.9272 1.874C3.07753 1.87342 3.22073 1.92029 3.33238 1.96767C3.45182 2.01836 3.57569 2.08739 3.69782 2.16616C3.94252 2.32399 4.2094 2.53987 4.46225 2.78537C4.95066 3.25955 5.46954 3.92503 5.60928 4.57895C5.66863 4.85667 5.60925 5.13934 5.45912 5.36825C5.36702 5.5087 5.24909 5.65762 5.13792 5.79623C5.12193 5.81617 5.10599 5.836 5.09013 5.85573C4.99084 5.97929 4.89438 6.09931 4.80476 6.22105C4.70087 6.36219 4.61782 6.49032 4.56181 6.60525C4.50457 6.72272 4.48931 6.79888 4.48947 6.84211C4.49026 7.04513 4.61564 7.44604 4.89252 7.94509C5.15898 8.42534 5.53004 8.93224 5.94283 9.33675C6.37797 9.76317 6.76293 10.0797 7.10416 10.2873C7.42248 10.481 7.67717 10.5642 7.88161 10.5745C7.89114 10.5665 7.90408 10.5549 7.9207 10.5384C7.95871 10.5006 8.00048 10.4537 8.05775 10.3885L8.06546 10.3798C8.11797 10.3201 8.18083 10.2485 8.25031 10.1763C8.55627 9.8583 9.01686 9.50042 9.77748 9.49749C10.372 9.4952 10.9805 9.80669 11.4616 10.2195C11.9502 10.6388 12.3724 11.2168 12.5655 11.8483C12.7297 12.385 12.4677 12.8435 12.1574 13.1607C11.8449 13.4801 11.4067 13.7439 10.9809 13.948C10.2642 14.2914 9.4667 14.4139 8.68973 14.3422C7.30766 14.2147 5.38089 13.6733 3.09819 11.5277C3.09069 11.5207 3.08344 11.5134 3.07645 11.5058C1.78 10.109 1.07345 8.92564 0.704989 7.84237C0.335907 6.75728 0.318379 5.80674 0.347419 4.91263C0.380456 3.89548 0.849622 3.13791 1.3795 2.64099C1.64314 2.39375 1.92528 2.20726 2.18481 2.08075ZM1.99828 3.30063C1.60871 3.66597 1.27529 4.20795 1.25145 4.94199C1.22361 5.79908 1.24473 6.6204 1.56133 7.55117C1.87763 8.4811 2.50114 9.55416 3.72895 10.8793C5.8565 12.875 7.58927 13.3324 8.77287 13.4417C9.4018 13.4997 10.0335 13.3991 10.59 13.1324C10.9761 12.9474 11.3055 12.7381 11.5108 12.5283C11.7182 12.3163 11.724 12.1895 11.7006 12.1128C11.5666 11.6747 11.2567 11.2355 10.8725 10.9058C10.481 10.5698 10.0761 10.4007 9.78097 10.4019C9.35536 10.4035 9.11332 10.5838 8.90217 10.8033C8.84706 10.8606 8.79607 10.9186 8.74081 10.9814L8.73703 10.9857C8.68364 11.0464 8.62139 11.1172 8.55802 11.1801C8.44346 11.2939 8.23377 11.4788 7.9316 11.48C7.49123 11.4817 7.05602 11.3167 6.63398 11.0599C6.21026 10.8021 5.76959 10.4333 5.30971 9.98264C4.82749 9.51009 4.40526 8.93116 4.10158 8.38381C3.80832 7.85525 3.58668 7.28678 3.58498 6.8456C3.58407 6.61069 3.65948 6.39219 3.74868 6.20914C3.83911 6.02356 3.95824 5.84534 4.0763 5.68496C4.17826 5.54644 4.2881 5.40982 4.38664 5.28726C4.40215 5.26796 4.41739 5.24902 4.43226 5.23046C4.54656 5.08795 4.63785 4.97127 4.70273 4.87233C4.72604 4.83679 4.73148 4.79946 4.72474 4.76792C4.64262 4.38363 4.28569 3.87454 3.83214 3.43419C3.61401 3.22241 3.39339 3.04603 3.20751 2.92614C3.11435 2.86606 3.03717 2.82487 2.97898 2.80017C2.94665 2.78645 2.92752 2.78097 2.91978 2.77893C2.87455 2.78284 2.75594 2.80847 2.5812 2.89366C2.40117 2.98142 2.19437 3.11674 1.99828 3.30063Z" fill="white"/>
<path fill-rule="evenodd" clip-rule="evenodd" d="M7.9665 4.69568C7.97022 4.69527 7.97726 4.69463 7.98852 4.69378C8.01107 4.69208 8.04788 4.69011 8.09657 4.69019C8.19426 4.69035 8.33766 4.69876 8.50841 4.73313C8.84786 4.80144 9.29461 4.97169 9.7145 5.3883C10.1344 5.80491 10.3081 6.25026 10.3791 6.58913C10.4147 6.75959 10.4243 6.9029 10.4252 7.00057C10.4256 7.04925 10.4239 7.08607 10.4224 7.10863C10.4217 7.11989 10.4209 7.12753 10.4206 7.13125C10.4206 7.13105 10.4207 7.13025 10.869 7.1901L10.4207 7.13025C10.4206 7.13132 10.4205 7.13238 10.4203 7.13344C10.4203 7.13344 10.4203 7.13344 10.4203 7.13344C10.3892 7.37971 10.5626 7.60535 10.8091 7.63826C11.0567 7.67131 11.2841 7.49745 11.3172 7.24994L10.8846 7.19218C11.3172 7.24993 11.3172 7.25015 11.3172 7.24994L11.3174 7.24803L11.3177 7.2457L11.3185 7.23975L11.3203 7.22281C11.3217 7.20932 11.3233 7.19147 11.3248 7.16959C11.3277 7.12586 11.3302 7.0658 11.3295 6.9921C11.3282 6.84499 11.314 6.6415 11.2643 6.40387C11.1643 5.92655 10.9201 5.31053 10.3515 4.74642C9.78298 4.18231 9.16501 3.94285 8.68686 3.84663C8.44882 3.79872 8.2452 3.78616 8.09807 3.78592C8.02435 3.7858 7.9643 3.78877 7.92059 3.79206C7.89872 3.7937 7.88088 3.79544 7.8674 3.79691L7.85048 3.7989L7.84453 3.79967L7.8422 3.79998L7.84119 3.80012C7.84097 3.80015 7.8403 3.80025 7.9036 4.24793L7.8403 3.80025C7.59301 3.8352 7.42089 4.06398 7.45585 4.31123C7.49066 4.55742 7.71767 4.7291 7.96373 4.69606" fill="white"/>
<path fill-rule="evenodd" clip-rule="evenodd" d="M7.92037 2.11597C7.67199 2.13056 7.45827 1.94166 7.44254 1.69312C7.42675 1.44388 7.61604 1.22904 7.86531 1.21326L7.89388 1.66455C7.86531 1.21326 7.86508 1.21328 7.86531 1.21326L7.86627 1.2132L7.8674 1.21314L7.87017 1.21298L7.87774 1.21259C7.88367 1.21231 7.89138 1.21199 7.90081 1.2117C7.91965 1.21111 7.94537 1.21062 7.97748 1.21073C8.04167 1.21094 8.13156 1.21352 8.24324 1.22246C8.46644 1.24033 8.77786 1.28367 9.14576 1.3848C9.88345 1.58757 10.8453 2.0221 11.7721 2.94159C12.6988 3.8611 13.1402 4.81885 13.348 5.55435C13.4516 5.92115 13.497 6.23192 13.5163 6.45477C13.526 6.56627 13.5291 6.65604 13.5297 6.72018C13.53 6.75226 13.5297 6.77796 13.5292 6.7968C13.529 6.80622 13.5287 6.81393 13.5285 6.81987L13.5281 6.82744L13.528 6.83022L13.5279 6.83135C13.5279 6.83158 13.5279 6.83231 13.0764 6.8065L13.5279 6.83231C13.5136 7.08164 13.2999 7.27221 13.0506 7.25796C12.8019 7.24374 12.6117 7.03123 12.6247 6.78281L12.625 6.77426C12.6252 6.76546 12.6255 6.75018 12.6253 6.72887C12.6248 6.68623 12.6227 6.61966 12.6152 6.53282C12.6001 6.35898 12.5637 6.10514 12.4775 5.8002C12.3058 5.19224 11.9357 4.37802 11.1349 3.58355C10.3342 2.78905 9.51625 2.42457 8.906 2.25683C8.59994 2.1727 8.34536 2.13791 8.17106 2.12396C8.08398 2.11699 8.01724 2.11525 7.97449 2.1151C7.95313 2.11503 7.9378 2.11536 7.92896 2.11564L7.92037 2.11597ZM7.92037 2.11597C7.92037 2.11597 7.92037 2.11597 7.92037 2.11597V2.11597Z" fill="white"/>
</svg>
