<svg width="16" height="16" viewBox="0 0 16 16" fill="none" xmlns="http://www.w3.org/2000/svg">
<path d="M3.3833 1.5739C3.3833 1.60135 3.3833 1.62331 3.38879 1.65075C2.71897 2.12835 2.13699 2.71574 1.65933 3.38547C1.58247 3.48977 1.51109 3.60505 1.43972 3.71485C1.24755 4.01128 1.08284 4.3187 0.940093 4.64259C0.654595 5.27938 0.456942 5.97107 0.358115 6.69021C0.314192 7.0141 0.28125 7.34896 0.28125 7.68383C0.28125 11.7901 3.62488 15.1332 7.73167 15.1332C11.8385 15.1332 15.1821 11.7901 15.1821 7.68383C15.1821 7.14036 15.1162 6.60787 15.0064 6.09184C14.8801 5.52093 14.688 4.97745 14.4409 4.46692C14.2817 4.13755 14.1115 3.81915 13.9083 3.52271C13.7052 3.22627 13.4801 2.95179 13.2385 2.6828C11.8769 1.18414 9.91683 0.234436 7.73167 0.234436C6.15594 0.234436 4.69001 0.73399 3.48213 1.5739H3.3833ZM1.40128 7.68383C1.40128 7.10193 1.48364 6.54199 1.63188 6.00401C2.23582 6.89333 3.06486 7.63991 4.04764 8.17789C4.12999 9.29228 4.42098 10.3353 4.88217 11.2685C3.24605 10.5769 1.97228 9.29228 1.40128 7.72226C1.40677 7.70579 1.40128 7.69481 1.40128 7.68383ZM7.65481 8.34258C6.65556 8.34258 5.71122 8.12849 4.87119 7.74971C4.87119 7.67834 4.8657 7.60698 4.8657 7.53561C4.8657 6.67923 5.00296 5.86128 5.25552 5.10372C5.93632 5.57033 6.76537 5.8503 7.65481 5.8503C8.59915 5.8503 9.46663 5.54288 10.1694 5.02686C10.4384 5.81187 10.5921 6.65178 10.5921 7.5411C10.5921 7.59051 10.5867 7.63991 10.5867 7.68932C9.71369 8.10104 8.71445 8.34258 7.65481 8.34258ZM10.5263 8.52374C10.3835 9.66009 9.9937 10.7031 9.4227 11.6034C8.86269 11.7461 8.26424 11.8285 7.65481 11.8285C7.10577 11.8285 6.5732 11.7681 6.0626 11.6528C5.48611 10.7635 5.09081 9.72047 4.93708 8.58961C5.77161 8.90801 6.6885 9.08917 7.65481 9.08917C8.6815 9.08917 9.64781 8.88605 10.5263 8.52374ZM6.91361 13.953C4.59118 13.651 2.66407 12.0865 1.84051 9.96751C2.7574 11.0544 4.03117 11.8834 5.49709 12.3006C5.8924 12.877 6.35908 13.3875 6.88066 13.8267C6.93557 13.8487 6.99047 13.8651 7.04538 13.8816C7.00145 13.9145 6.95753 13.931 6.91361 13.953ZM7.73167 13.4369C7.38029 13.1734 7.05087 12.8825 6.75439 12.5476C7.05087 12.5806 7.35284 12.6025 7.6603 12.6025C8.02266 12.6025 8.37953 12.5751 8.73092 12.5312C8.42346 12.866 8.08854 13.1679 7.73167 13.4369ZM8.54973 13.953C8.50581 13.931 8.46189 13.909 8.42346 13.8871C8.47836 13.8706 8.53326 13.8541 8.58817 13.8322C9.12622 13.3766 9.60388 12.8441 10.0102 12.2512C11.5475 11.7736 12.8597 10.8458 13.7546 9.63813C13.0079 11.9218 10.9929 13.6346 8.54973 13.953ZM14.0401 7.29407C13.5734 8.99585 12.2997 10.4067 10.6141 11.1807C11.0643 10.242 11.3443 9.19896 11.4157 8.09006C12.3875 7.52463 13.2056 6.75609 13.7875 5.83932C13.9248 6.30045 14.0126 6.78902 14.0401 7.29407ZM13.4307 4.95001C12.9805 5.8503 12.2887 6.62434 11.4267 7.20623C11.3883 6.21811 11.1851 5.27389 10.8447 4.41203C11.2565 3.9509 11.5694 3.40743 11.7506 2.80357C12.4589 3.37998 13.0299 4.11559 13.4307 4.95001ZM11.0149 2.28206C10.9161 2.74868 10.7184 3.17686 10.4549 3.55565C10.0321 2.75965 9.48859 2.0515 8.8517 1.46411C9.62584 1.60135 10.3561 1.88132 11.0149 2.28206ZM7.73167 1.63429C8.61562 2.28755 9.34035 3.17686 9.83997 4.2144C9.24701 4.70846 8.48385 5.0049 7.65481 5.0049C6.87517 5.0049 6.15594 4.7414 5.57945 4.30223C6.08456 3.22078 6.82576 2.30402 7.73167 1.63429ZM6.61164 1.45862C5.94181 2.07894 5.37631 2.82553 4.94806 3.66544C4.65158 3.28666 4.43745 2.842 4.32216 2.35891C5.00845 1.91974 5.78259 1.61233 6.61164 1.45862ZM4.56922 4.52182C4.24529 5.38369 4.05862 6.31692 4.03117 7.29956C3.15271 6.73962 2.43347 5.98205 1.9613 5.10372C2.34014 4.25832 2.90015 3.51173 3.59743 2.90787C3.80057 3.51722 4.13548 4.06618 4.56922 4.52182Z" fill="white"/>
</svg>
