<svg width="16" height="20" viewBox="0 0 16 20" fill="none" xmlns="http://www.w3.org/2000/svg">
<g clip-path="url(#clip0)">
<path opacity="0.9" d="M3.14453 0.724426V3.59548L11.4337 10.2258L3.14453 16.8561V19.7244L15.0206 10.2258L3.14453 0.724426Z" fill="url(#paint0_linear)"/>
<g opacity="0.3">
<path opacity="0.3" d="M1.62524 4.85037V18.2278L9.98898 11.5377L1.62524 4.85037Z" fill="white"/>
<path opacity="0.3" d="M1.57495 4.80695V18.1871L9.93629 11.497L1.57495 4.80695Z" fill="#F8F8F8"/>
<path opacity="0.3" d="M1.52173 4.76343V18.1436L9.88306 11.4535L1.52173 4.76343Z" fill="#F2F2F2"/>
<path opacity="0.3" d="M1.46875 4.72272V18.1028L9.83249 11.4128L1.46875 4.72272Z" fill="#EBEBEB"/>
<path opacity="0.3" d="M1.41626 4.67923V18.0594L9.78 11.3693L1.41626 4.67923Z" fill="#E5E5E5"/>
<path opacity="0.3" d="M1.36304 4.63855V18.016L9.72678 11.3259L1.36304 4.63855Z" fill="#DEDEDE"/>
<path opacity="0.3" d="M1.31274 4.59506V17.9752L9.67408 11.2851L1.31274 4.59506Z" fill="#D8D8D8"/>
<path opacity="0.3" d="M1.25977 4.55161V17.9317L9.6211 11.2417L1.25977 4.55161Z" fill="#D1D1D1"/>
<path opacity="0.3" d="M1.20679 4.51086V17.891L9.57053 11.2009L1.20679 4.51086Z" fill="#CACACA"/>
<path opacity="0.3" d="M1.15308 4.46741V17.8475L9.51682 11.1575L1.15308 4.46741Z" fill="#C4C4C4"/>
<path opacity="0.3" d="M1.1001 4.42392V17.8041L9.46384 11.114L1.1001 4.42392Z" fill="#BDBDBD"/>
<path opacity="0.3" d="M1.04712 4.38318V17.7633L9.41086 11.0732L1.04712 4.38318Z" fill="#B7B7B7"/>
<path opacity="0.3" d="M0.996826 4.33975V17.7199L9.35816 11.0298L0.996826 4.33975Z" fill="#B0B0B0"/>
<path opacity="0.3" d="M0.944336 4.29901V17.6791L9.30567 10.9891L0.944336 4.29901Z" fill="#A9A9A9"/>
<path opacity="0.3" d="M0.891113 4.25552V17.6356L9.25485 10.9456L0.891113 4.25552Z" fill="#A3A3A3"/>
<path opacity="0.3" d="M0.838135 4.2121V17.5922L9.20187 10.9022L0.838135 4.2121Z" fill="#9C9C9C"/>
<path opacity="0.3" d="M0.785156 4.1713V17.5514L9.14889 10.8614L0.785156 4.1713Z" fill="#969696"/>
<path opacity="0.3" d="M0.734863 4.12787V17.508L9.0962 10.8179L0.734863 4.12787Z" fill="#8F8F8F"/>
<path opacity="0.3" d="M0.682373 4.08713V17.4673L9.04371 10.7772L0.682373 4.08713Z" fill="#898989"/>
<path opacity="0.3" d="M0.62915 4.04367V17.4238L8.99049 10.7337L0.62915 4.04367Z" fill="#828282"/>
<path opacity="0.3" d="M0.576416 4.00018V17.3803L8.94015 10.6902L0.576416 4.00018Z" fill="#7B7B7B"/>
<path opacity="0.3" d="M0.523926 3.95947V17.3396L8.88766 10.6495L0.523926 3.95947Z" fill="#757575"/>
<path opacity="0.3" d="M0.470703 3.91599V17.2961L8.83444 10.6061L0.470703 3.91599Z" fill="#6E6E6E"/>
<path opacity="0.3" d="M0.42041 3.87524V17.2527L8.78174 10.5653L0.42041 3.87524Z" fill="#686868"/>
<path opacity="0.3" d="M0.367432 3.83182V17.212L8.72877 10.5219L0.367432 3.83182Z" fill="#616161"/>
<path opacity="0.3" d="M0.314941 3.78833V17.1685L8.67868 10.4784L0.314941 3.78833Z" fill="#5A5A5A"/>
<path opacity="0.3" d="M0.261963 3.74759V17.1277L8.6257 10.4377L0.261963 3.74759Z" fill="#545454"/>
<path opacity="0.3" d="M0.208984 3.70416V17.0843L8.57272 10.3942L0.208984 3.70416Z" fill="#4D4D4D"/>
<path opacity="0.3" d="M0.156006 3.66342V17.0408L8.51974 10.3535L0.156006 3.66342Z" fill="#474747"/>
<path opacity="0.3" d="M0.105469 3.61993V17.0001L8.4668 10.31L0.105469 3.61993Z" fill="#404040"/>
<path opacity="0.3" d="M0.0529785 3.57648V16.9566L8.41432 10.2665L0.0529785 3.57648Z" fill="#3A3A3A"/>
<path opacity="0.3" d="M0 3.53574V16.9159L8.36374 10.2258L0 3.53574Z" fill="#333333"/>
</g>
<path opacity="0.9" d="M0 3.53574V16.9159L8.36374 10.2258L0 3.53574Z" fill="url(#paint1_linear)"/>
<path d="M3.14453 0.724426V3.59548L11.4337 10.2258H15.0206L3.14453 0.724426Z" fill="#41A51A"/>
<path d="M0 3.53574V10.2258H8.36374L4.18067 6.87941L0 3.53574Z" fill="#3CA014"/>
</g>
<defs>
<linearGradient id="paint0_linear" x1="9.08339" y1="18.8769" x2="9.08339" y2="0.434442" gradientUnits="userSpaceOnUse">
<stop stop-color="#008200"/>
<stop offset="1" stop-color="#77C600"/>
</linearGradient>
<linearGradient id="paint1_linear" x1="4.18139" y1="18.4218" x2="4.18139" y2="0.949455" gradientUnits="userSpaceOnUse">
<stop stop-color="#008200"/>
<stop offset="1" stop-color="#77C600"/>
</linearGradient>
<clipPath id="clip0">
<rect width="15.0206" height="19" fill="white" transform="translate(0 0.724426)"/>
</clipPath>
</defs>
</svg>
